<svg width="247" height="32" viewBox="0 0 247 32" fill="none" xmlns="http://www.w3.org/2000/svg">
<path d="M1.76 31C0.912 31 0.488 30.576 0.488 29.728V1.336C0.488 0.487999 0.912 0.0639992 1.76 0.0639992H19.064C19.464 0.0639992 19.768 0.175999 19.976 0.399998C20.2 0.607998 20.312 0.919998 20.312 1.336C20.312 2.168 19.896 2.584 19.064 2.584H3.008V14.08H13.952C14.8 14.08 15.224 14.496 15.224 15.328C15.224 16.176 14.8 16.6 13.952 16.6H3.008V29.728C3.008 30.576 2.592 31 1.76 31ZM26.0881 31C25.2401 31 24.8161 30.576 24.8161 29.728V1.336C24.8161 0.487999 25.2401 0.0639992 26.0881 0.0639992C26.9201 0.0639992 27.3361 0.487999 27.3361 1.336V28.48H41.9281C42.7761 28.48 43.2001 28.896 43.2001 29.728C43.2001 30.576 42.7761 31 41.9281 31H26.0881ZM57.2386 31C53.7666 31 51.2306 30.2 49.6306 28.6C48.0306 27 47.2306 24.464 47.2306 20.992V10.048C47.2306 6.544 48.0306 4 49.6306 2.416C51.2306 0.815999 53.7506 0.0319996 57.1906 0.0639992H62.9986C66.4706 0.0639992 68.9986 0.863999 70.5826 2.464C72.1826 4.064 72.9826 6.6 72.9826 10.072V20.992C72.9826 24.464 72.1826 27 70.5826 28.6C68.9986 30.2 66.4706 31 62.9986 31H57.2386ZM57.2386 28.48H62.9986C64.8386 28.48 66.3026 28.24 67.3906 27.76C68.4786 27.28 69.2626 26.496 69.7426 25.408C70.2226 24.32 70.4626 22.848 70.4626 20.992V10.072C70.4626 8.232 70.2226 6.768 69.7426 5.68C69.2626 4.592 68.4786 3.808 67.3906 3.328C66.3026 2.832 64.8386 2.584 62.9986 2.584H57.1906C55.3506 2.568 53.8866 2.8 52.7986 3.28C51.7266 3.744 50.9506 4.528 50.4706 5.632C49.9906 6.72 49.7506 8.192 49.7506 10.048V20.992C49.7506 22.848 49.9906 24.32 50.4706 25.408C50.9506 26.496 51.7346 27.28 52.8226 27.76C53.9106 28.24 55.3826 28.48 57.2386 28.48ZM86.987 31C86.379 31 85.971 30.672 85.763 30.016L76.571 1.744C76.443 1.376 76.491 1.008 76.715 0.639997C76.939 0.255999 77.291 0.0639992 77.771 0.0639992C78.043 0.0639992 78.283 0.143999 78.491 0.303999C78.715 0.447998 78.867 0.671998 78.947 0.975999L87.491 27.232H86.795L94.883 1.048C94.995 0.695998 95.187 0.439998 95.459 0.279998C95.747 0.119998 96.043 0.0399981 96.347 0.0399981C96.667 0.0399981 96.971 0.119998 97.259 0.279998C97.547 0.439998 97.731 0.695998 97.811 1.048L105.899 27.232H105.203L113.747 0.975999C113.859 0.671998 114.011 0.447998 114.203 0.303999C114.411 0.143999 114.651 0.0639992 114.923 0.0639992C115.467 0.0639992 115.835 0.247999 116.027 0.615999C116.235 0.983999 116.275 1.36 116.147 1.744L106.931 30.016C106.723 30.672 106.283 31 105.611 31H105.515C104.827 31 104.387 30.672 104.195 30.016L95.963 3.568H96.659L88.427 30.016C88.315 30.416 88.139 30.68 87.899 30.808C87.659 30.936 87.355 31 86.987 31ZM127.87 30.952C125.006 30.952 122.878 30.32 121.486 29.056C120.11 27.776 119.374 25.768 119.278 23.032C119.262 22.648 119.366 22.344 119.59 22.12C119.83 21.88 120.142 21.76 120.526 21.76C120.91 21.76 121.214 21.872 121.438 22.096C121.661 22.32 121.789 22.624 121.822 23.008C121.886 25.024 122.366 26.432 123.262 27.232C124.158 28.032 125.694 28.432 127.87 28.432H134.782C137.054 28.432 138.63 27.992 139.51 27.112C140.406 26.216 140.854 24.648 140.854 22.408C140.854 20.136 140.406 18.56 139.51 17.68C138.63 16.784 137.054 16.336 134.782 16.336H128.206C125.39 16.336 123.326 15.68 122.014 14.368C120.702 13.056 120.046 11 120.046 8.2C120.046 5.4 120.694 3.344 121.99 2.032C123.302 0.719999 125.358 0.0639992 128.158 0.0639992H134.878C137.566 0.0639992 139.558 0.663999 140.854 1.864C142.166 3.064 142.87 4.952 142.966 7.528C142.998 7.912 142.894 8.224 142.654 8.464C142.43 8.688 142.118 8.8 141.718 8.8C141.35 8.8 141.054 8.688 140.83 8.464C140.606 8.24 140.478 7.936 140.446 7.552C140.382 5.712 139.934 4.424 139.102 3.688C138.27 2.952 136.862 2.584 134.878 2.584H128.158C126.062 2.584 124.606 3 123.79 3.832C122.974 4.648 122.566 6.104 122.566 8.2C122.566 10.296 122.974 11.76 123.79 12.592C124.622 13.408 126.094 13.816 128.206 13.816H134.782C137.758 13.816 139.934 14.512 141.31 15.904C142.686 17.28 143.374 19.448 143.374 22.408C143.374 25.368 142.686 27.536 141.31 28.912C139.934 30.272 137.758 30.952 134.782 30.952H127.87ZM158.46 31.024C158.076 31.024 157.764 30.912 157.524 30.688C157.3 30.464 157.188 30.16 157.188 29.776V2.56H146.988C146.604 2.56 146.292 2.448 146.052 2.224C145.828 2 145.716 1.696 145.716 1.312C145.716 0.927999 145.828 0.623999 146.052 0.399998C146.292 0.159998 146.604 0.0399981 146.988 0.0399981H169.932C170.316 0.0399981 170.62 0.159998 170.844 0.399998C171.068 0.623999 171.18 0.927999 171.18 1.312C171.18 1.696 171.068 2 170.844 2.224C170.62 2.448 170.316 2.56 169.932 2.56H159.708V29.776C159.708 30.144 159.588 30.448 159.348 30.688C159.124 30.912 158.828 31.024 158.46 31.024ZM170.283 30.88C169.515 30.544 169.283 29.984 169.587 29.2L181.491 1.048C181.747 0.391999 182.219 0.0639992 182.907 0.0639992H183.051C183.707 0.079998 184.171 0.407998 184.443 1.048L196.347 29.2C196.667 29.984 196.443 30.544 195.675 30.88C194.891 31.2 194.347 30.976 194.043 30.208L190.851 22.648H175.131L171.939 30.208C171.619 30.976 171.067 31.2 170.283 30.88ZM176.163 20.128H189.795L182.979 4.048L176.163 20.128ZM207.491 31.024C207.107 31.024 206.795 30.912 206.555 30.688C206.331 30.464 206.219 30.16 206.219 29.776V2.56H196.019C195.635 2.56 195.323 2.448 195.083 2.224C194.859 2 194.747 1.696 194.747 1.312C194.747 0.927999 194.859 0.623999 195.083 0.399998C195.323 0.159998 195.635 0.0399981 196.019 0.0399981H218.963C219.347 0.0399981 219.651 0.159998 219.875 0.399998C220.099 0.623999 220.211 0.927999 220.211 1.312C220.211 1.696 220.099 2 219.875 2.224C219.651 2.448 219.347 2.56 218.963 2.56H208.739V29.776C208.739 30.144 208.619 30.448 208.379 30.688C208.155 30.912 207.859 31.024 207.491 31.024ZM226.854 31C226.006 31 225.582 30.576 225.582 29.728V1.336C225.582 0.487999 226.006 0.0639992 226.854 0.0639992H244.83C245.678 0.0639992 246.102 0.487999 246.102 1.336C246.102 2.168 245.678 2.584 244.83 2.584H228.102V14.08H239.166C240.014 14.08 240.438 14.496 240.438 15.328C240.438 16.176 240.014 16.6 239.166 16.6H228.102V28.48H244.83C245.678 28.48 246.102 28.896 246.102 29.728C246.102 30.576 245.678 31 244.83 31H226.854Z" fill="white"/>
</svg>
